<svg width="25" height="25" viewBox="0 0 25 25" fill="none" xmlns="http://www.w3.org/2000/svg">
<rect width="25" height="25" rx="12.5" fill="#302B27"/>
<rect width="25" height="25" rx="12.5" fill="#302B27"/>
<circle cx="8.22935" cy="9.54503" r="4.72056" fill="#71F79F"/>
<circle cx="8.11418" cy="9.86833" r="3.28947" fill="#302B27"/>
<circle cx="17.0194" cy="9.54503" r="4.72056" fill="#71F79F"/>
<circle cx="16.8862" cy="9.86833" r="3.28947" fill="#302B27"/>
<rect width="1.15089" height="3.27308" transform="matrix(-0.73902 -0.673684 0.494848 -0.868979 11.5337 9.61938)" fill="#302B27"/>
<rect width="1.10589" height="4.39879" transform="matrix(-0.877873 -0.478893 0.384041 -0.923316 10.998 11.4712)" fill="#302B27"/>
<rect width="1.10589" height="3.3415" transform="matrix(-0.877873 -0.478893 0.384041 -0.923316 11.936 8.87793)" fill="#302B27"/>
<rect width="0.293659" height="4.38216" transform="matrix(-0.826075 -0.56356 0.47368 -0.880697 10.5977 11.5383)" fill="#302B27"/>
<rect width="1.15089" height="3.27308" transform="matrix(0.720278 0.693685 -0.518478 0.855091 13.4048 10.1255)" fill="#302B27"/>
<rect width="1.10589" height="4.39879" transform="matrix(0.864419 0.502773 -0.409202 0.912444 13.9912 8.28906)" fill="#302B27"/>
<rect width="1.10589" height="3.3415" transform="matrix(0.864419 0.502773 -0.409202 0.912444 12.9824 10.8555)" fill="#302B27"/>
<rect width="0.293659" height="5.89226" transform="matrix(0.809288 0.587411 -0.499163 0.866508 14.3916 8.23193)" fill="#302B27"/>
<path d="M21.4912 14.6929C21.4912 15.6433 21.2587 16.5843 20.8068 17.4623C20.355 18.3403 19.6927 19.1381 18.8578 19.8101C18.0229 20.4821 17.0317 21.0152 15.9408 21.3789C14.8499 21.7426 13.6808 21.9297 12.5 21.9297C11.3193 21.9297 10.1501 21.7426 9.05922 21.3789C7.96836 21.0152 6.97717 20.4821 6.14226 19.8101C5.30735 19.1381 4.64506 18.3403 4.19321 17.4623C3.74135 16.5843 3.50879 15.6433 3.50879 14.6929L12.5 14.6929H21.4912Z" fill="#71F79F"/>
<path d="M19.298 14.6921C19.298 15.3543 19.1279 16.0101 18.7972 16.6219C18.4666 17.2338 17.982 17.7897 17.3711 18.258C16.7602 18.7262 16.0349 19.0977 15.2367 19.3511C14.4385 19.6046 13.583 19.735 12.7191 19.735C11.8551 19.735 10.9996 19.6046 10.2014 19.3511C9.40323 19.0977 8.67798 18.7262 8.06707 18.258C7.45615 17.7897 6.97155 17.2338 6.64093 16.6219C6.31031 16.0101 6.14014 15.3543 6.14014 14.6921L12.7191 14.6921L19.298 14.6921Z" fill="#302B27"/>
</svg>
