<svg width="57" height="57" viewBox="0 0 57 57" fill="none" xmlns="http://www.w3.org/2000/svg">
<rect width="57" height="57" rx="28.5" fill="#F4F1DE"/>
<circle cx="18.7629" cy="21.7629" r="10.7629" fill="#E07A5F"/>
<circle cx="18.5" cy="22.5" r="7.5" fill="#F4F1DE"/>
<circle cx="38.8039" cy="21.7629" r="10.7629" fill="#E07A5F"/>
<circle cx="38.5" cy="22.5" r="7.5" fill="#F4F1DE"/>
<rect width="2.62403" height="7.46262" transform="matrix(-0.73902 -0.673684 0.494848 -0.868979 26.2969 21.9324)" fill="#F4F1DE"/>
<rect width="2.52144" height="10.0292" transform="matrix(-0.877873 -0.478893 0.384041 -0.923316 25.0752 26.1545)" fill="#F4F1DE"/>
<rect width="2.52144" height="7.61862" transform="matrix(-0.877873 -0.478893 0.384041 -0.923316 27.2139 20.2419)" fill="#F4F1DE"/>
<rect width="0.669542" height="9.99132" transform="matrix(-0.826075 -0.56356 0.47368 -0.880697 24.1621 26.3071)" fill="#F4F1DE"/>
<rect width="2.62403" height="7.46262" transform="matrix(0.720278 0.693685 -0.518478 0.855091 30.5625 23.0862)" fill="#F4F1DE"/>
<rect width="2.52144" height="10.0292" transform="matrix(0.864419 0.502773 -0.409202 0.912444 31.8994 18.8989)" fill="#F4F1DE"/>
<rect width="2.52144" height="7.61862" transform="matrix(0.864419 0.502773 -0.409202 0.912444 29.5996 24.7507)" fill="#F4F1DE"/>
<rect width="0.669542" height="13.4343" transform="matrix(0.809288 0.587411 -0.499163 0.866508 32.8125 18.769)" fill="#F4F1DE"/>
<path d="M49 33.5C49 35.6668 48.4698 37.8124 47.4395 39.8143C46.4093 41.8161 44.8993 43.6351 42.9957 45.1673C41.0921 46.6994 38.8322 47.9148 36.345 48.744C33.8578 49.5732 31.1921 50 28.5 50C25.8079 50 23.1422 49.5732 20.655 48.744C18.1678 47.9148 15.9079 46.6994 14.0043 45.1673C12.1007 43.6351 10.5907 41.8161 9.56047 39.8143C8.53025 37.8124 8 35.6668 8 33.5L28.5 33.5H49Z" fill="#E07A5F"/>
<path d="M44 33.4978C44 35.0078 43.612 36.5029 42.8582 37.8979C42.1044 39.2929 40.9995 40.5604 39.6066 41.628C38.2137 42.6957 36.5601 43.5426 34.7403 44.1205C32.9204 44.6983 30.9698 44.9957 29 44.9957C27.0302 44.9957 25.0796 44.6983 23.2597 44.1205C21.4399 43.5426 19.7863 42.6957 18.3934 41.628C17.0005 40.5604 15.8956 39.2929 15.1418 37.8979C14.388 36.5029 14 35.0078 14 33.4978L29 33.4978L44 33.4978Z" fill="#F4F1DE"/>
</svg>
