<svg width="21" height="29" viewBox="0 0 21 29" fill="none" xmlns="http://www.w3.org/2000/svg">
<path d="M20.5 11.5046C20.5 14.4839 19.0641 16.4536 16.9852 18.8193C16.7242 19.1163 16.4535 19.419 16.1754 19.73C14.4091 21.7055 12.3441 24.0151 10.5435 27.3328C8.97063 23.9033 6.77515 21.5229 4.85919 19.4456C4.6924 19.2648 4.52774 19.0863 4.36578 18.9095C2.15133 16.4931 0.5 14.4668 0.5 11.5046C0.5 5.38294 5.01917 0.5 10.5 0.5C15.9808 0.5 20.5 5.38294 20.5 11.5046Z" fill="#6F9683" stroke="black"/>
<path d="M13.341 11.5046C13.341 13.2941 12.0271 14.6651 10.5001 14.6651C8.97311 14.6651 7.65918 13.2941 7.65918 11.5046C7.65918 9.71509 8.97311 8.34404 10.5001 8.34404C12.0271 8.34404 13.341 9.71509 13.341 11.5046Z" fill="white" stroke="black"/>
</svg>
